<?xml version="1.0" standalone="no"?>
<!DOCTYPE svg PUBLIC "-//W3C//DTD SVG 20010904//EN" "http://www.w3.org/TR/2001/REC-SVG-20010904/DTD/svg10.dtd">
<svg version="1.0" xmlns="http://www.w3.org/2000/svg"
    width="1080.000000pt" height="1080.000000pt" viewBox="0 0 1080.000000 1080.000000"
    preserveAspectRatio="xMidYMid meet">

    <g transform="translate(0.000000,1080.000000) scale(0.100000,-0.100000)"
        fill="#000000" stroke="none">
        <path
            d="M5474 10450 c-1035 -60 -2030 -673 -2703 -1670 -497 -735 -789 -1571
-898 -2565 -25 -229 -25 -940 0 -1170 52 -475 138 -880 277 -1295 554 -1663
1785 -2784 3213 -2930 173 -18 564 -8 737 19 902 139 1717 661 2332 1491 495
669 822 1481 962 2390 53 342 60 454 60 910 0 453 -7 561 -59 906 -313 2065
-1639 3632 -3287 3885 -111 17 -426 41 -483 37 -11 0 -79 -4 -151 -8z m518
-599 c695 -150 1319 -760 1733 -1696 66 -148 165 -408 165 -431 0 -10 -58 -43
-172 -98 -268 -129 -449 -199 -1178 -456 -930 -328 -1211 -458 -1526 -705
l-92 -72 48 -65 c80 -109 161 -156 283 -165 129 -10 232 27 517 183 154 85
206 109 271 123 29 7 42 6 44 -2 5 -13 115 -1589 115 -1640 l0 -32 -127 -1
c-148 0 -201 -8 -488 -74 -115 -26 -258 -58 -317 -70 -127 -25 -330 -50 -339
-41 -8 8 -47 686 -55 956 -9 298 18 744 61 995 20 114 60 277 91 372 l25 77
95 51 c131 70 258 123 550 229 446 164 582 223 699 306 103 73 99 64 88 225
-5 76 -11 142 -14 145 -3 3 -55 -23 -115 -57 -142 -81 -416 -212 -579 -278
-160 -65 -405 -154 -860 -315 -953 -336 -1249 -473 -1557 -720 l-77 -62 33
-49 c75 -111 179 -174 300 -182 132 -8 230 27 518 185 158 88 242 123 288 123
28 0 30 -3 30 -37 1 -21 32 -477 69 -1013 l68 -975 -41 -54 c-74 -98 -188
-184 -400 -301 -163 -90 -294 -178 -329 -221 -16 -20 -33 -56 -39 -80 -9 -44
-9 -44 34 -83 83 -74 155 -94 221 -60 18 10 60 36 95 60 62 42 115 64 158 64
12 0 39 14 60 31 78 62 127 73 187 43 18 -9 93 -76 167 -149 142 -139 167
-155 253 -155 l37 0 0 55 c0 31 9 83 21 117 65 193 248 320 809 560 102 44
232 104 289 134 57 30 105 53 106 51 1 -1 5 -37 8 -79 l7 -77 -50 -60 c-86
-103 -213 -195 -451 -324 -124 -68 -238 -147 -272 -189 -21 -26 -31 -52 -35
-86 -4 -47 -3 -50 34 -79 69 -54 108 -73 150 -73 40 0 56 8 199 98 28 18 75
36 104 42 30 6 64 19 75 29 61 56 123 73 183 50 15 -5 86 -68 158 -139 71 -70
145 -135 164 -145 18 -9 57 -19 87 -22 l54 -6 0 49 c0 115 53 228 145 311 132
119 283 202 692 379 228 98 348 160 461 235 l81 54 -52 33 c-63 39 -101 51
-192 59 -101 8 -250 -12 -480 -63 -354 -80 -475 -104 -593 -118 -65 -7 -119
-12 -121 -9 -3 2 -14 131 -24 286 -28 400 -30 1193 -4 1417 29 257 60 411 122
613 l26 86 92 49 c134 72 266 127 602 251 317 116 415 156 531 214 l71 36 26
-97 c100 -375 167 -803 198 -1253 15 -237 7 -859 -15 -1079 -102 -1009 -378
-1860 -821 -2525 -387 -581 -866 -944 -1395 -1056 -143 -31 -426 -33 -575 -5
-286 53 -584 195 -840 401 -96 76 -281 261 -374 372 -470 561 -820 1401 -970
2333 -57 348 -79 601 -88 975 -44 2017 771 3806 1951 4279 109 44 244 82 362
101 129 21 417 13 546 -14z" />
    </g>
</svg>